<mxfile host="app.diagrams.net" agent="Mozilla/5.0 (Windows NT 10.0; Win64; x64) AppleWebKit/537.36 (KHTML, like Gecko) Chrome/135.0.0.0 Safari/537.36" version="26.2.14">
  <diagram name="Page-1" id="1wpCTRRuTes-YHJF-JcR">
    <mxGraphModel dx="3560" dy="4760" grid="1" gridSize="10" guides="1" tooltips="1" connect="1" arrows="1" fold="1" page="1" pageScale="1" pageWidth="827" pageHeight="1169" math="1" shadow="0">
      <root>
        <mxCell id="0" />
        <mxCell id="1" parent="0" />
        <mxCell id="QYAU8jXPNCYRcvgM-pDT-1" value="" style="shape=image;verticalLabelPosition=bottom;labelBackgroundColor=default;verticalAlign=top;aspect=fixed;imageAspect=0;image=data:image/png,iVBORw0KGgoAAAANSUhEUgAACVEAAAU6CAIAAABuqzPaAAAACXBIWXMAAC4jAAAuIwF4pT92AAAJvWlUWHRYTUw6Y29tLmFkb2JlLnhtcAAAAAAAPD94cGFja2V0IGJlZ2luPSLvu78iIGlkPSJXNU0wTXBDZWhpSHpyZVN6TlRjemtjOWQiPz4gPHg6eG1wbWV0YSB4bWxuczp4PSJhZG9iZTpuczptZXRhLyIgeDp4bXB0az0iQWRvYmUgWE1QIENvcmUgOS4wLWMwMDEgNzkuMTRlY2I0MiwgMjAyMi8xMi8wMi0xOToxMjo0NCAgICAgICAgIj4gPHJkZjpSREYgeG1sbnM6cmRmPSJodHRwOi8vd3d3LnczLm9yZy8xOTk5LzAyLzIyLXJkZi1zeW50YXgtbnMjIj4gPHJkZjpEZXNjcmlwdGlvbiByZGY6YWJvdXQ9IiIgeG1sbnM6eG1wPSJodHRwOi8vbnMuYWRvYmUuY29tL3hhcC8xLjAvIiB4bWxuczpkYz0iaHR0cDovL3B1cmwub3JnL2RjL2VsZW1lbnRzLzEuMS8iIHhtbG5zOnBob3Rvc2hvcD0iaHR0cDovL25zLmFkb2JlLmNvbS9waG90b3Nob3AvMS4wLyIgeG1sbnM6eG1wTU09Imh0dHA6Ly9ucy5hZG9iZS5jb20veGFwLzEuMC9tbS8iIHhtbG5zOnN0RXZ0PSJodHRwOi8vbnMuYWRvYmUuY29tL3hhcC8xLjAvc1R5cGUvUmVzb3VyY2VFdmVudCMiIHhtbG5zOnN0UmVmPSJodHRwOi8vbnMuYWRvYmUuY29tL3hhcC8xLjAvc1R5cGUvUmVzb3VyY2VSZWYjIiB4bXA6Q3JlYXRvclRvb2w9IkFkb2JlIFBob3Rvc2hvcCAyNC4yIChXaW5kb3dzKSIgeG1wOkNyZWF0ZURhdGU9IjIwMjUtMDQtMjZUMTg6MzY6MDIrMDI6MDAiIHhtcDpNb2RpZnlEYXRlPSIyMDI1LTA0LTI2VDE4OjQ0OjAyKzAyOjAwIiB4bXA6TWV0YWRhdGFEYXRlPSIyMDI1LTA0LTI2VDE4OjQ0OjAyKzAyOjAwIiBkYzpmb3JtYXQ9ImltYWdlL3BuZyIgcGhvdG9zaG9wOkNvbG9yTW9kZT0iMyIgeG1wTU06SW5zdGFuY2VJRD0ieG1wLmlpZDoyZDQ5MTg2MC1iYjUxLTExNDktOGY1NC1hYjgxYjYxNDc0YjEiIHhtcE1NOkRvY3VtZW50SUQ9ImFkb2JlOmRvY2lkOnBob3Rvc2hvcDowMTIwNGI5My0zNWZkLTJiNGQtOWY0OS0wZmJmYWE2NDdhNDciIHhtcE1NOk9yaWdpbmFsRG9jdW1lbnRJRD0ieG1wLmRpZDo2YTNjNDIwNS1iOGM4LTk5NDMtYjAxZC00YTgzZTMxNDgxZTYiPiA8eG1wTU06SGlzdG9yeT4gPHJkZjpTZXE+IDxyZGY6bGkgc3RFdnQ6YWN0aW9uPSJjcmVhdGVkIiBzdEV2dDppbnN0YW5jZUlEPSJ4bXAuaWlkOjZhM2M0MjA1LWI4YzgtOTk0My1iMDFkLTRhODNlMzE0ODFlNiIgc3RFdnQ6d2hlbj0iMjAyNS0wNC0yNlQxODozNjowMiswMjowMCIgc3RFdnQ6c29mdHdhcmVBZ2VudD0iQWRvYmUgUGhvdG9zaG9wIDI0LjIgKFdpbmRvd3MpIi8+IDxyZGY6bGkgc3RFdnQ6YWN0aW9uPSJjb252ZXJ0ZWQiIHN0RXZ0OnBhcmFtZXRlcnM9ImZyb20gaW1hZ2UvcG5nIHRvIGFwcGxpY2F0aW9uL3ZuZC5hZG9iZS5waG90b3Nob3AiLz4gPHJkZjpsaSBzdEV2dDphY3Rpb249InNhdmVkIiBzdEV2dDppbnN0YW5jZUlEPSJ4bXAuaWlkOjEyN2RiMjgzLTdlMWYtYzM0OS04ZmNjLTg4NTcyNjFjYTcxNyIgc3RFdnQ6d2hlbj0iMjAyNS0wNC0yNlQxODo0Mjo0MiswMjowMCIgc3RFdnQ6c29mdHdhcmVBZ2VudD0iQWRvYmUgUGhvdG9zaG9wIDI0LjIgKFdpbmRvd3MpIiBzdEV2dDpjaGFuZ2VkPSIvIi8+IDxyZGY6bGkgc3RFdnQ6YWN0aW9uPSJzYXZlZCIgc3RFdnQ6aW5zdGFuY2VJRD0ieG1wLmlpZDpjNzY1YTYyMC1hZjZkLWM2NGYtYjA4Yi01YWU2MWViYTUzM2MiIHN0RXZ0OndoZW49IjIwMjUtMDQtMjZUMTg6NDQ6MDIrMDI6MDAiIHN0RXZ0OnNvZnR3YXJlQWdlbnQ9IkFkb2JlIFBob3Rvc2hvcCAyNC4yIChXaW5kb3dzKSIgc3RFdnQ6Y2hhbmdlZD0iLyIvPiA8cmRmOmxpIHN0RXZ0OmFjdGlvbj0iY29udmVydGVkIiBzdEV2dDpwYXJhbWV0ZXJzPSJmcm9tIGFwcGxpY2F0aW9uL3ZuZC5hZG9iZS5waG90b3Nob3AgdG8gaW1hZ2UvcG5nIi8+IDxyZGY6bGkgc3RFdnQ6YWN0aW9uPSJkZXJpdmVkIiBzdEV2dDpwYXJhbWV0ZXJzPSJjb252ZXJ0ZWQgZnJvbSBhcHBsaWNhdGlvbi92bmQuYWRvYmUucGhvdG9zaG9wIHRvIGltYWdlL3BuZyIvPiA8cmRmOmxpIHN0RXZ0OmFjdGlvbj0ic2F2ZWQiIHN0RXZ0Omluc3RhbmNlSUQ9InhtcC5paWQ6MmQ0OTE4NjAtYmI1MS0xMTQ5LThmNTQtYWI4MWI2MTQ3NGIxIiBzdEV2dDp3aGVuPSIyMDI1LTA0LTI2VDE4OjQ0OjAyKzAyOjAwIiBzdEV2dDpzb2Z0d2FyZUFnZW50PSJBZG9iZSBQaG90b3Nob3AgMjQuMiAoV2luZG93cykiIHN0RXZ0OmNoYW5nZWQ9Ii8iLz4gPC9yZGY6U2VxPiA8L3htcE1NOkhpc3Rvcnk+IDx4bXBNTTpEZXJpdmVkRnJvbSBzdFJlZjppbnN0YW5jZUlEPSJ4bXAuaWlkOmM3NjVhNjIwLWFmNmQtYzY0Zi1iMDhiLTVhZTYxZWJhNTMzYyIgc3RSZWY6ZG9jdW1lbnRJRD0ieG1wLmRpZDo2YTNjNDIwNS1iOGM4LTk5NDMtYjAxZC00YTgzZTMxNDgxZTYiIHN0UmVmOm9yaWdpbmFsRG9jdW1lbnRJRD0ieG1wLmRpZDo2YTNjNDIwNS1iOGM4LTk5NDMtYjAxZC00YTgzZTMxNDgxZTYiLz4gPC9yZGY6RGVzY3JpcHRpb24+IDwvcmRmOlJERj4gPC94OnhtcG1ldGE+IDw/eHBhY2tldCBlbmQ9InIiPz67cqRrAAAy6UlEQVR4nOzcMW4bRwCGUY+8klK6tAudxY2OmgPoAFLhs7hx6dYw7ElhIIE7MtFm9iPfq6hm9y8ogosPwzHnfAMAAAAAAABk3aweAAAAAAAAAPwnmh8AAAAAAAC0aX4AAAAAAADQpvkBAAAAAABAm+YHAAAAAAAAbZofAAAAAAAAtGl+AAAAAAAA0Kb5AQAAAAAAQJvmBwAAAAAAAG2aHwAAAAAAALRpfgAAAAAAANCm+QEAAAAAAECb5gcAAAAAAABtmh8AAAAAAAC0aX4AAAAAAADQpvkBAAAAAABAm+YHAAAAAAAAbZofAAAAAAAAtGl+AAAAAAAA0Kb5AQAAAAAAQJvmBwAAAAAAAG2aHwAAAAAAALRpfgAAAAAAANCm+QEAAAAAAECb5gcAAAAAAABtmh8AAAAAAAC0bXtc9OvXr58+ffr1+uHh4f7+fo+7AAAAAAAAQMK3b98+f/786/XHjx/fvXv3yjeYO3h6enrllQAAAAAAAHARnp6eXj3P+W1PAAAAAAAAaNP8AAAAAAAAoG2X5vfw8LDHZQEAAAAAAKBuj5S2vfoV37x5c39//88f73/scQsAAAAAAADI+PL275e/pbRX4rc9AQAAAAAAoE3zAwAAAAAAgDbNDwAAAAAAANo0PwAAAAAAAGjT/AAAAAAAAKBN8wMAAAAAAIA2zQ8AAAAAAADaND8AAAAAAABo0/wAAAAAAACgTfMDAAAAAACANs0PAAAAAAAA2jQ/AAAAAAAAaNP8AAAAAAAAoE3zAwAAAAAAgDbNDwAAAAAAANo0PwAAAAAAAGjT/AAAAAAAAKBN8wMAAAAAAIA2zQ8AAAAAAADaND8AAAAAAABo0/wAAAAAAACgTfMDAAAAAACANs0PAAAAAAAA2jQ/AAAAAAAAaNtWDzjHl7erFxzFnHP1hIs1xlg94ZJ56+7HW3c/3rdE+VjYj4+F/XjfEuVjAQAALtj48HP1hFM55wcAAAAAAABtmh8AAAAAAAC0aX4AAAAAAADQpvkBAAAAAABAm+YHAAAAAAAAbZofAAAAAAAAtGl+AAAAAAAA0Kb5AQAAAAAAQJvmBwAAAAAAAG2aHwAAAAAAALRpfgAAAAAAANCm+QEAAAAAAECb5gcAAAAAAABtmh8AAAAAAAC0aX4AAAAAAADQpvkBAAAAAABAm+YHAAAAAAAAbZofAAAAAAAAtGl+AAAAAAAA0Kb5AQAAAAAAQJvmBwAAAAAAAG2aHwAAAAAAALRpfgAAAAAAANCm+QEAAAAAAECb5gcAAAAAAABtmh8AAAAAAAC0aX4AAAAAAADQpvkBAAAAAABAm+YHAAAAAAAAbZofAAAAAAAAtGl+AAAAAAAA0Kb5AQAAAAAAQJvmBwAAAAAAAG2aHwAAAAAAALRpfgAAAAAAANCm+QEAAAAAAECb5gcAAAAAAABtmh8AAAAAAAC0aX4AAAAAAADQpvkBAAAAAABAm+YHAAAAAAAAbZofAAAAAAAAtGl+AAAAAAAA0Kb5AQAAAAAAQJvmBwAAAAAAAG2aHwAAAAAAALRpfgAAAAAAANCm+QEAAAAAAECb5gcAAAAAAABtmh8AAAAAAAC0aX4AAAAAAADQpvkBAAAAAABAm+YHAAAAAAAAbZofAAAAAAAAtGl+AAAAAAAA0Kb5AQAAAAAAQJvmBwAAAAAAAG2aHwAAAAAAALRpfgAAAAAAANCm+QEAAAAAAECb5gcAAAAAAABtmh8AAAAAAAC0aX4AAAAAAADQpvkBAAAAAABAm+YHAAAAAAAAbZofAAAAAAAAtGl+AAAAAAAA0Kb5AQAAAAAAQJvmBwAAAAAAAG2aHwAAAAAAALRpfgAAAAAAANCm+QEAAAAAAECb5gcAAAAAAABtmh8AAAAAAAC0aX4AAAAAAADQpvkBAAAAAABAm+YHAAAAAAAAbZofAAAAAAAAtGl+AAAAAAAA0Kb5AQAAAAAAQJvmBwAAAAAAAG2aHwAAAAAAALRpfgAAAAAAANCm+QEAAAAAAECb5gcAAAAAAABtmh8AAAAAAAC0aX4AAAAAAADQtq0eAACHNsZYPQHgWsw5V0+Af8O3BQAAuGTvf6xecCrn/AAAAAAAAKBN8wMAAAAAAIA2zQ8AAAAAAADaND8AAAAAAABo0/wAAAAAAACgTfMDAAAAAACANs0PAAAAAAAA2jQ/AAAAAAAAaNP8AAAAAAAAoE3zAwAAAAAAgDbNDwAAAAAAANo0PwAAAAAAAGjT/AAAAAAAAKBN8wMAAAAAAIA2zQ8AAAAAAADaND8AAAAAAABo0/wAAAAAAACgTfMDAAAAAACANs0PAAAAAAAA2jQ/AAAAAAAAaNP8AAAAAAAAoE3zAwAAAAAAgDbNDwAAAAAAANo0PwAAAAAAAGjT/AAAAAAAAKBN8wMAAAAAAIA2zQ8AAAAAAADaND8AAAAAAABo0/wAAAAAAACgTfMDAAAAAACANs0PAAAAAAAA2jQ/AAAAAAAAaNP8AAAAAAAAoE3zAwAAAAAAgDbNDwAAAAAAANo0PwAAAAAAAGjT/AAAAAAAAKBN8wMAAAAAAIA2zQ8AAAAAAADaND8AAAAAAABo0/wAAAAAAACgTfMDAAAAAACANs0PAAAAAAAA2jQ/AAAAAAAAaNP8AAAAAAAAoE3zAwAAAAAAgDbNDwAAAAAAANo0PwAAAAAAAGjT/AAAAAAAAKBN8wMAAAAAAIA2zQ8AAAAAAADaND8AAAAAAABo0/wAAAAAAACgTfMDAAAAAACANs0PAAAAAAAA2jQ/AAAAAAAAaNP8AAAAAAAAoE3zAwAAAAAAgDbNDwAAAAAAANo0PwAAAAAAAGjT/AAAAAAAAKBN8wMAAAAAAIA2zQ8AAAAAAADaND8AAAAAAABo0/wAAAAAAACgTfMDAAAAAACANs0PAAAAAAAA2jQ/AAAAAAAAaNP8AAAAAAAAoE3zAwAAAAAAgDbNDwAAAAAAANo0PwAAAAAAAGjT/AAAAAAAAKBN8wMAAAAAAIA2zQ8AAAAAAADaND8AAAAAAABo0/wAAAAAAACgTfMDAAAAAACANs0PAAAAAAAA2jQ/AAAAAAAAaNP8AAAAAAAAoE3zAwAAAAAAgDbNDwAAAAAAANo0PwAAAAAAAGjT/AAAAAAAAKBN8wMAAAAAAIA2zQ8AAAAAAADaND8AAAAAAABo0/wAAAAAAACgTfMDAAAAAACANs0PAAAAAAAA2jQ/AAAAAAAAaNP8AAAAAAAAoE3zAwAAAAAAgDbNDwAAAAAAANo0PwAAAAAAAGjT/AAAAAAAAKBN8wMAAAAAAIA2zQ8AAAAAAADaND8AAAAAAABo0/wAAAAAAACgTfMDAAAAAACANs0PAAAAAAAA2jQ/AAAAAAAAaNP8AAAAAAAAoE3zAwAAAAAAgDbNDwAAAAAAANo0PwAAAAAAAGjT/AAAAAAAAKBN8wMAAAAAAIA2zQ8AAAAAAADaND8AAAAAAABo0/wAAAAAAACgTfMDAAAAAACANs0PAAAAAAAA2rbVA84w51w9AeCgfEIC/G/GGKsnAMfimxgAAFyw8eHn6gmncs4PAAAAAAAA2jQ/AAAAAAAAaNP8AAAAAAAAoE3zAwAAAAAAgDbNDwAAAAAAANo0PwAAAAAAAGjT/AAAAAAAAKBN8wMAAAAAAIA2zQ8AAAAAAADaND8AAAAAAABo0/wAAAAAAACgTfMDAAAAAACANs0PAAAAAAAA2jQ/AAAAAAAAaNP8AAAAAAAAoE3zAwAAAAAAgDbNDwAAAAAAANo0PwAAAAAAAGjT/AAAAAAAAKBN8wMAAAAAAIA2zQ8AAAAAAADaND8AAAAAAABo0/wAAAAAAACgTfMDAAAAAACANs0PAAAAAAAA2jQ/AAAAAAAAaNP8AAAAAAAAoE3zAwAAAAAAgDbNDwAAAAAAANo0PwAAAAAAAGjT/AAAAAAAAKBN8wMAAAAAAIA2zQ8AAAAAAADaND8AAAAAAABo0/wAAAAAAACgTfMDAAAAAACANs0PAAAAAAAA2jQ/AAAAAAAAaNP8AAAAAAAAoE3zAwAAAAAAgDbNDwAAAAAAANo0PwAAAAAAAGjT/AAAAAAAAKBN8wMAAAAAAIA2zQ8AAAAAAADaND8AAAAAAABo0/wAAAAAAACgTfMDAAAAAACANs0PAAAAAAAA2jQ/AAAAAAAAaNP8AAAAAAAAoE3zAwAAAAAAgDbNDwAAAAAAANo0PwAAAAAAAGjT/AAAAAAAAKBN8wMAAAAAAIA2zQ8AAAAAAADaND8AAAAAAABo0/wAAAAAAACgTfMDAAAAAACANs0PAAAAAAAA2jQ/AAAAAAAAaNP8AAAAAAAAoE3zAwAAAAAAgDbNDwAAAAAAANo0PwAAAAAAAGjT/AAAAAAAAKBN8wMAAAAAAIA2zQ8AAAAAAADaND8AAAAAAABo0/wAAAAAAACgTfMDAAAAAACANs0PAAAAAAAA2jQ/AAAAAAAAaNP8AAAAAAAAoE3zAwAAAAAAgDbNDwAAAAAAANo0PwAAAAAAAGjT/AAAAAAAAKBN8wMAAAAAAIA2zQ8AAAAAAADaND8AAAAAAABo0/wAAAAAAACgTfMDAAAAAACANs0PAAAAAAAA2jQ/AAAAAAAAaNP8AAAAAAAAoE3zAwAAAAAAgDbNDwAAAAAAANo0PwAAAAAAAGjT/AAAAAAAAKBN8wMAAAAAAIC2bfWAM4wPP1dP4Aq8/7F6wSXzXwzAJfBtAfidb7kAAMAROOcHAAAAAAAAbZofAAAAAAAAtGl+AAAAAAAA0Kb5AQAAAAAAQJvmBwAAAAAAAG2aHwAAAAAAALRpfgAAAAAAANCm+QEAAAAAAECb5gcAAAAAAABtmh8AAAAAAAC0aX4AAAAAAADQpvkBAAAAAABAm+YHAAAAAAAAbZofAAAAAAAAtGl+AAAAAAAA0Kb5AQAAAAAAQJvmBwAAAAAAAG2aHwAAAAAAALRpfgAAAAAAANCm+QEAAAAAAECb5gcAAAAAAABtmh8AAAAAAAC0aX4AAAAAAADQpvkBAAAAAABA27b3Dcaff+x9CwAAAAAAADiy+bjv9Z3zAwAAAAAAgDbNDwAAAAAAANo0PwAAAAAAAGjT/AAAAAAAAKBN8wMAAAAAAIA2zQ8AAAAAAADaND8AAAAAAABo0/wAAAAAAACgTfMDAAAAAACANs0PAAAAAAAA2jQ/AAAAAAAAaNP8AAAAAAAAoE3zAwAAAAAAgDbNDwAAAAAAANo0PwAAAAAAAGjT/AAAAAAAAKBN8wMAAAAAAIA2zQ8AAAAAAADaND8AAAAAAABo0/wAAAAAAACgTfMDAAAAAACANs0PAAAAAAAA2jQ/AAAAAAAAaNP8AAAAAAAAoG1bPeAM8/H76gkAAFy7OefqCcCxjDFWTwAAAPYynm9XTziVc34AAAAAAADQpvkBAAAAAABAm+YHAAAAAAAAbZofAAAAAAAAtGl+AAAAAAAA0Kb5AQAAAAAAQJvmBwAAAAAAAG2aHwAAAAAAALRpfgAAAAAAANCm+QEAAAAAAECb5gcAAAAAAABtmh8AAAAAAAC0aX4AAAAAAADQpvkBAAAAAABAm+YHAAAAAAAAbZofAAAAAAAAtGl+AAAAAAAA0Kb5AQAAAAAAQJvmBwAAAAAAAG2aHwAAAAAAALRpfgAAAAAAANCm+QEAAAAAAECb5gcAAAAAAABtmh8AAAAAAAC0aX4AAAAAAADQpvkBAAAAAABAm+YHAAAAAAAAbZofAAAAAAAAtGl+AAAAAAAA0Kb5AQAAAAAAQJvmBwAAAAAAAG2aHwAAAAAAALRpfgAAAAAAANCm+QEAAAAAAECb5gcAAAAAAABtmh8AAAAAAAC0aX4AAAAAAADQpvkBAAAAAABAm+YHAAAAAAAAbZofAAAAAAAAtGl+AAAAAAAA0Kb5AQAAAAAAQJvmBwAAAAAAAG2aHwAAAAAAALRpfgAAAAAAANCm+QEAAAAAAECb5gcAAAAAAABtmh8AAAAAAAC0aX4AAAAAAADQpvkBAAAAAABAm+YHAAAAAAAAbZofAAAAAAAAtGl+AAAAAAAA0Kb5AQAAAAAAQJvmBwAAAAAAAG2aHwAAAAAAALRpfgAAAAAAANCm+QEAAAAAAECb5gcAAAAAAABtmh8AAAAAAAC0aX4AAAAAAADQpvkBAAAAAABAm+YHAAAAAAAAbZofAAAAAAAAtGl+AAAAAAAA0Kb5AQAAAAAAQJvmBwAAAAAAAG2aHwAAAAAAALRpfgAAAAAAANCm+QEAAAAAAECb5gcAAAAAAABtmh8AAAAAAAC0aX4AAAAAAADQpvkBAAAAAABAm+YHAAAAAAAAbZofAAAAAAAAtGl+AAAAAAAA0Kb5AQAAAAAAQJvmBwAAAAAAAG2aHwAAAAAAALRpfgAAAAAAANCm+QEAAAAAAECb5gcAAAAAAABtmh8AAAAAAAC0aX4AAAAAAADQpvkBAAAAAABAm+YHAAAAAAAAbZofAAAAAAAAtGl+AAAAAAAA0LatHnCGOefqCQAAXLsxxuoJwLF4VgUAgAt283K3esKpnPMDAAAAAACANs0PAAAAAAAA2jQ/AAAAAAAAaNP8AAAAAAAAoE3zAwAAAAAAgDbNDwAAAAAAANo0PwAAAAAAAGjT/AAAAAAAAKBN8wMAAAAAAIA2zQ8AAAAAAADaND8AAAAAAABo0/wAAAAAAACgTfMDAAAAAACANs0PAAAAAAAA2jQ/AAAAAAAAaNP8AAAAAAAAoE3zAwAAAAAAgDbNDwAAAAAAANo0PwAAAAAAAGjT/AAAAAAAAKBN8wMAAAAAAIA2zQ8AAAAAAADaND8AAAAAAABo0/wAAAAAAACgTfMDAAAAAACANs0PAAAAAAAA2jQ/AAAAAAAAaNP8AAAAAAAAoE3zAwAAAAAAgDbNDwAAAAAAANo0PwAAAAAAAGjT/AAAAAAAAKBN8wMAAAAAAIA2zQ8AAAAAAADaND8AAAAAAABo0/wAAAAAAACgTfMDAAAAAACANs0PAAAAAAAA2jQ/AAAAAAAAaNP8AAAAAAAAoE3zAwAAAAAAgDbNDwAAAAAAANo0PwAAAAAAAGjT/AAAAAAAAKBN8wMAAAAAAIA2zQ8AAAAAAADaND8AAAAAAABo0/wAAAAAAACgTfMDAAAAAACANs0PAAAAAAAA2jQ/AAAAAAAAaNP8AAAAAAAAoE3zAwAAAAAAgDbNDwAAAAAAANo0PwAAAAAAAGjT/AAAAAAAAKBN8wMAAAAAAIA2zQ8AAAAAAADaND8AAAAAAABo0/wAAAAAAACgTfMDAAAAAACANs0PAAAAAAAA2jQ/AAAAAAAAaNP8AAAAAAAAoE3zAwAAAAAAgDbNDwAAAAAAANo0PwAAAAAAAGjT/AAAAAAAAKBN8wMAAAAAAIA2zQ8AAAAAAADaND8AAAAAAABo0/wAAAAAAACgTfMDAAAAAACANs0PAAAAAAAA2jQ/AAAAAAAAaNP8AAAAAAAAoE3zAwAAAAAAgDbNDwAAAAAAANo0PwAAAAAAAGjT/AAAAAAAAKBN8wMAAAAAAIA2zQ8AAAAAAADaND8AAAAAAABo0/wAAAAAAACgTfMDAAAAAACANs0PAAAAAAAA2jQ/AAAAAAAAaNP8AAAAAAAAoE3zAwAAAAAAgDbNDwAAAAAAANo0PwAAAAAAAGjT/AAAAAAAAKBtWz3gDDcvd6snAABw7cbz7eoJwLF4VgUAAI7AOT8AAAAAAABo0/wAAAAAAACgTfMDAAAAAACANs0PAAAAAAAA2jQ/AAAAAAAAaNP8AAAAAAAAoE3zAwAAAAAAgDbNDwAAAAAAANo0PwAAAAAAAGjT/AAAAAAAAKBN8wMAAAAAAIA2zQ8AAAAAAADaND8AAAAAAABo0/wAAAAAAACgTfMDAAAAAACANs0PAAAAAAAA2jQ/AAAAAAAAaNP8AAAAAAAAoE3zAwAAAAAAgDbNDwAAAAAAANo0PwAAAAAAAGjT/AAAAAAAAKBN8wMAAAAAAIA2zQ8AAAAAAADaND8AAAAAAABo0/wAAAAAAACgTfMDAAAAAACANs0PAAAAAAAA2jQ/AAAAAAAAaNP8AAAAAAAAoE3zAwAAAAAAgDbNDwAAAAAAANo0PwAAAAAAAGjT/AAAAAAAAKBN8wMAAAAAAIA2zQ8AAAAAAADaND8AAAAAAABo0/wAAAAAAACgTfMDAAAAAACANs0PAAAAAAAA2jQ/AAAAAAAAaNP8AAAAAAAAoE3zAwAAAAAAgDbNDwAAAAAAANo0PwAAAAAAAGjT/AAAAAAAAKBN8wMAAAAAAIA2zQ8AAAAAAADaND8AAAAAAABo21YPOMN8/L56AgAA127OuXoCcCxjjNUTAACAvYzn29UTTuWcHwAAAAAAALRpfgAAAAAAANCm+QEAAAAAAECb5gcAAAAAAABtmh8AAAAAAAC0aX4AAAAAAADQpvkBAAAAAABAm+YHAAAAAAAAbZofAAAAAAAAtGl+AAAAAAAA0Kb5AQAAAAAAQJvmBwAAAAAAAG2aHwAAAAAAALRpfgAAAAAAANCm+QEAAAAAAECb5gcAAAAAAABtmh8AAAAAAAC0aX4AAAAAAADQpvkBAAAAAABAm+YHAAAAAAAAbZofAAAAAAAAtGl+AAAAAAAA0Kb5AQAAAAAAQJvmBwAAAAAAAG2aHwAAAAAAALRpfgAAAAAAANCm+QEAAAAAAECb5gcAAAAAAABtmh8AAAAAAAC0aX4AAAAAAADQpvkBAAAAAABAm+YHAAAAAAAAbZofAAAAAAAAtGl+AAAAAAAA0Kb5AQAAAAAAQJvmBwAAAAAAAG2aHwAAAAAAALRpfgAAAAAAANCm+QEAAAAAAECb5gcAAAAAAABtmh8AAAAAAAC0aX4AAAAAAADQpvkBAAAAAABAm+YHAAAAAAAAbZofAAAAAAAAtGl+AAAAAAAA0Kb5AQAAAAAAQJvmBwAAAAAAAG2aHwAAAAAAALRpfgAAAAAAANCm+QEAAAAAAECb5gcAAAAAAABtmh8AAAAAAAC0aX4AAAAAAADQpvkBAAAAAABAm+YHAAAAAAAAbZofAAAAAAAAtGl+AAAAAAAA0Kb5AQAAAAAAQJvmBwAAAAAAAG2aHwAAAAAAALRpfgAAAAAAANCm+QEAAAAAAECb5gcAAAAAAABtmh8AAAAAAAC0aX4AAAAAAADQpvkBAAAAAABAm+YHAAAAAAAAbZofAAAAAAAAtGl+AAAAAAAA0Kb5AQAAAAAAQJvmBwAAAAAAAG2aHwAAAAAAALRpfgAAAAAAANCm+QEAAAAAAECb5gcAAAAAAABtmh8AAAAAAAC0aX4AAAAAAADQpvkBAAAAAABAm+YHAAAAAAAAbZofAAAAAAAAtGl+AAAAAAAA0Kb5AQAAAAAAQJvmBwAAAAAAAG2aHwAAAAAAALRpfgAAAAAAANCm+QEAAAAAAECb5gcAAAAAAABt2+oBZ5hzrp4AAMC1G2OsngAci2dVAAC4YDcvd6snnMo5PwAAAAAAAGjT/AAAAAAAAKBN8wMAAAAAAIA2zQ8AAAAAAADaND8AAAAAAABo0/wAAAAAAACgTfMDAAAAAACANs0PAAAAAAAA2jQ/AAAAAAAAaNP8AAAAAAAAoE3zAwAAAAAAgDbNDwAAAAAAANo0PwAAAAAAAGjT/AAAAAAAAKBN8wMAAAAAAIA2zQ8AAAAAAADaND8AAAAAAABo0/wAAAAAAACgTfMDAAAAAACANs0PAAAAAAAA2jQ/AAAAAAAAaNP8AAAAAAAAoE3zAwAAAAAAgDbNDwAAAAAAANo0PwAAAAAAAGjT/AAAAAAAAKBN8wMAAAAAAIA2zQ8AAAAAAADaND8AAAAAAABo0/wAAAAAAACgTfMDAAAAAACANs0PAAAAAAAA2jQ/AAAAAAAAaNP8AAAAAAAAoE3zAwAAAAAAgDbNDwAAAAAAANo0PwAAAAAAAGjT/AAAAAAAAKBN8wMAAAAAAIA2zQ8AAAAAAADaND8AAAAAAABo0/wAAAAAAACgTfMDAAAAAACANs0PAAAAAAAA2jQ/AAAAAAAAaNP8AAAAAAAAoE3zAwAAAAAAgDbNDwAAAAAAANo0PwAAAAAAAGjT/AAAAAAAAKBN8wMAAAAAAIA2zQ8AAAAAAADaND8AAAAAAABo0/wAAAAAAACgTfMDAAAAAACANs0PAAAAAAAA2jQ/AAAAAAAAaNP8AAAAAAAAoE3zAwAAAAAAgDbNDwAAAAAAANo0PwAAAAAAAGjT/AAAAAAAAKBN8wMAAAAAAIA2zQ8AAAAAAADaND8AAAAAAABo0/wAAAAAAACgTfMDAAAAAACANs0PAAAAAAAA2jQ/AAAAAAAAaNP8AAAAAAAAoE3zAwAAAAAAgDbNDwAAAAAAANo0PwAAAAAAAGjT/AAAAAAAAKBN8wMAAAAAAIA2zQ8AAAAAAADaND8AAAAAAABo0/wAAAAAAACgTfMDAAAAAACANs0PAAAAAAAA2jQ/AAAAAAAAaNP8AAAAAAAAoE3zAwAAAAAAgDbNDwAAAAAAANo0PwAAAAAAAGjT/AAAAAAAAKBN8wMAAAAAAIA2zQ8AAAAAAADaND8AAAAAAABo0/wAAAAAAACgTfMDAAAAAACANs0PAAAAAAAA2jQ/AAAAAAAAaNtWDzjDzcvd6gkAAFy78Xy7egJwLJ5VAQCAI3DODwAAAAAAANo0PwAAAAAAAGjT/AAAAAAAAKBN8wMAAAAAAIA2zQ8AAAAAAADaND8AAAAAAABo0/wAAAAAAACgTfMDAAAAAACANs0PAAAAAAAA2jQ/AAAAAAAAaNP8AAAAAAAAoE3zAwAAAAAAgDbNDwAAAAAAANo0PwAAAAAAAGjT/AAAAAAAAKBN8wMAAAAAAIA2zQ8AAAAAAADaND8AAAAAAABo0/wAAAAAAACgTfMDAAAAAACANs0PAAAAAAAA2jQ/AAAAAAAAaNP8AAAAAAAAoE3zAwAAAAAAgDbNDwAAAAAAANo0PwAAAAAAAGjT/AAAAAAAAKBN8wMAAAAAAIA2zQ8AAAAAAADaND8AAAAAAABo0/wAAAAAAACgTfMDAAAAAACANs0PAAAAAAAA2jQ/AAAAAAAAaNP8AAAAAAAAoE3zAwAAAAAAgDbNDwAAAAAAANo0PwAAAAAAAGjT/AAAAAAAAKBN8wMAAAAAAIA2zQ8AAAAAAADaND8AAAAAAABo0/wAAAAAAACgTfMDAAAAAACANs0PAAAAAAAA2jQ/AAAAAAAAaNP8AAAAAAAAoE3zAwAAAAAAgDbNDwAAAAAAANq21QPOMB+/r54AAMC1m3OungAcyxhj9QQAAGAv4/l29YRTOecHAAAAAAAAbZofAAAAAAAAtGl+AAAAAAAA0Kb5AQAAAAAAQJvmBwAAAAAAAG2aHwAAAAAAALRpfgAAAAAAANCm+QEAAAAAAECb5gcAAAAAAABtmh8AAAAAAAC0aX4AAAAAAADQpvkBAAAAAABAm+YHAAAAAAAAbZofAAAAAAAAtGl+AAAAAAAA0Kb5AQAAAAAAQJvmBwAAAAAAAG2aHwAAAAAAALRpfgAAAAAAANCm+QEAAAAAAECb5gcAAAAAAABtmh8AAAAAAAC0aX4AAAAAAADQpvkBAAAAAABAm+YHAAAAAAAAbZofAAAAAAAAtGl+AAAAAAAA0Kb5AQAAAAAAQJvmBwAAAAAAAG2aHwAAAAAAALRpfgAAAAAAANCm+QEAAAAAAECb5gcAAAAAAABtmh8AAAAAAAC0aX4AAAAAAADQpvkBAAAAAABAm+YHAAAAAAAAbZofAAAAAAAAtGl+AAAAAAAA0Kb5AQAAAAAAQJvmBwAAAAAAAG2aHwAAAAAAALRpfgAAAAAAANCm+QEAAAAAAECb5gcAAAAAAABtmh8AAAAAAAC0aX4AAAAAAADQpvkBAAAAAABAm+YHAAAAAAAAbZofAAAAAAAAtGl+AAAAAAAA0Kb5AQAAAAAAQJvmBwAAAAAAAG2aHwAAAAAAALRpfgAAAAAAANCm+QEAAAAAAECb5gcAAAAAAABtmh8AAAAAAAC0aX4AAAAAAADQpvkBAAAAAABAm+YHAAAAAAAAbZofAAAAAAAAtGl+AAAAAAAA0Kb5AQAAAAAAQJvmBwAAAAAAAG2aHwAAAAAAALRpfgAAAAAAANCm+QEAAAAAAECb5gcAAAAAAABtmh8AAAAAAAC0aX4AAAAAAADQpvkBAAAAAABAm+YHAAAAAAAAbZofAAAAAAAAtGl+AAAAAAAA0Kb5AQAAAAAAQJvmBwAAAAAAAG2aHwAAAAAAALRpfgAAAAAAANCm+QEAAAAAAECb5gcAAAAAAABtmh8AAAAAAAC0aX4AAAAAAADQpvkBAAAAAABAm+YHAAAAAAAAbZofAAAAAAAAtGl+AAAAAAAA0Kb5AQAAAAAAQNu2esAZ5pyrJwAAcO3GGKsnAMfiWRUAAC7Yzcvd6gmncs4PAAAAAAAA2jQ/AAAAAAAAaNP8AAAAAAAAoE3zAwAAAAAAgDbNDwAAAAAAANo0PwAAAAAAAGjT/AAAAAAAAKBN8wMAAAAAAIA2zQ8AAAAAAADaND8AAAAAAABo0/wAAAAAAACgTfMDAAAAAACANs0PAAAAAAAA2jQ/AAAAAAAAaNP8AAAAAAAAoE3zAwAAAAAAgDbNDwAAAAAAANo0PwAAAAAAAGjT/AAAAAAAAKBN8wMAAAAAAIA2zQ8AAAAAAADaND8AAAAAAABo0/wAAAAAAACgTfMDAAAAAACANs0PAAAAAAAA2jQ/AAAAAAAAaNP8AAAAAAAAoE3zAwAAAAAAgDbNDwAAAAAAANo0PwAAAAAAAGjT/AAAAAAAAKBN8wMAAAAAAIA2zQ8AAAAAAADaND8AAAAAAABo0/wAAAAAAACgTfMDAAAAAACANs0PAAAAAAAA2jQ/AAAAAAAAaNP8AAAAAAAAoE3zAwAAAAAAgDbNDwAAAAAAANo0PwAAAAAAAGjT/AAAAAAAAKBN8wMAAAAAAIA2zQ8AAAAAAADaND8AAAAAAABo0/wAAAAAAACgTfMDAAAAAACANs0PAAAAAAAA2jQ/AAAAAAAAaNP8AAAAAAAAoE3zAwAAAAAAgDbNDwAAAAAAANo0PwAAAAAAAGjT/AAAAAAAAKBN8wMAAAAAAIA2zQ8AAAAAAADaND8AAAAAAABo0/wAAAAAAACgTfMDAAAAAACANs0PAAAAAAAA2jQ/AAAAAAAAaNP8AAAAAAAAoE3zAwAAAAAAgDbNDwAAAAAAANo0PwAAAAAAAGjT/AAAAAAAAKBN8wMAAAAAAIA2zQ8AAAAAAADaND8AAAAAAABo0/wAAAAAAACgTfMDAAAAAACANs0PAAAAAAAA2jQ/AAAAAAAAaNP8AAAAAAAAoE3zAwAAAAAAgDbNDwAAAAAAANo0PwAAAAAAAGjT/AAAAAAAAKBN8wMAAAAAAIA2zQ8AAAAAAADaND8AAAAAAABo0/wAAAAAAACgTfMDAAAAAACANs0PAAAAAAAA2jQ/AAAAAAAAaNP8AAAAAAAAoE3zAwAAAAAAgDbNDwAAAAAAANo0PwAAAAAAAGjT/AAAAAAAAKBN8wMAAAAAAIA2zQ8AAAAAAADattUDznDzcrd6AgAA1248366eAByLZ1UAAOAInPMDAAAAAACANs0PAAAAAAAA2jQ/AAAAAAAAaNP8AAAAAAAAoE3zAwAAAAAAgDbNDwAAAAAAANo0PwAAAAAAAGjT/AAAAAAAAKBN8wMAAAAAAIA2zQ8AAAAAAADaND8AAAAAAABo0/wAAAAAAACgTfMDAAAAAACANs0PAAAAAAAA2jQ/AAAAAAAAaNP8AAAAAAAAoE3zAwAAAAAAgDbNDwAAAAAAANo0PwAAAAAAAGjT/AAAAAAAAKBN8wMAAAAAAIA2zQ8AAAAAAADaND8AAAAAAABo0/wAAAAAAACgTfMDAAAAAACANs0PAAAAAAAA2jQ/AAAAAAAAaNP8AAAAAAAAoE3zAwAAAAAAgDbNDwAAAAAAANo0PwAAAAAAAGjT/AAAAAAAAKBN8wMAAAAAAIA2zQ8AAAAAAADaND8AAAAAAABo0/wAAAAAAACgTfMDAAAAAACANs0PAAAAAAAA2jQ/AAAAAAAAaNP8AAAAAAAAoE3zAwAAAAAAgDbNDwAAAAAAANo0PwAAAAAAAGjT/AAAAAAAAKBN8wMAAAAAAIA2zQ8AAAAAAADaND8AAAAAAABo0/wAAAAAAACgTfMDAAAAAACAtm31gDPMx++rJwAAcO3mnKsnAMcyxlg9AQAA2Mt4vl094VTO+QEAAAAAAECb5gcAAAAAAABtmh8AAAAAAAC0aX4AAAAAAADQpvkBAAAAAABAm+YHAAAAAAAAbZofAAAAAAAAtGl+AAAAAAAA0Kb5AQAAAAAAQJvmBwAAAAAAAG2aHwAAAAAAALRpfgAAAAAAANCm+QEAAAAAAECb5gcAAAAAAABtmh8AAAAAAAC0aX4AAAAAAADQpvkBAAAAAABAm+YHAAAAAAAAbZofAAAAAAAAtGl+AAAAAAAA0Kb5AQAAAAAAQJvmBwAAAAAAAG2aHwAAAAAAALRpfgAAAAAAANCm+QEAAAAAAECb5gcAAAAAAABtmh8AAAAAAAC0aX4AAAAAAADQpvkBAAAAAABAm+YHAAAAAAAAbZofAAAAAAAAtGl+AAAAAAAA0Kb5AQAAAAAAQJvmBwAAAAAAAG2aHwAAAAAAALRpfgAAAAAAANCm+QEAAAAAAECb5gcAAAAAAABtmh8AAAAAAAC0aX4AAAAAAADQpvkBAAAAAABAm+YHAAAAAAAAbZofAAAAAAAAtGl+AAAAAAAA0Kb5AQAAAAAAQJvmBwAAAAAAAG2aHwAAAAAAALRpfgAAAAAAANCm+QEAAAAAAECb5gcAAAAAAABtmh8AAAAAAAC0aX4AAAAAAADQpvkBAAAAAABAm+YHAAAAAAAAbZofAAAAAAAAtGl+AAAAAAAA0Kb5AQDAX+3cMW7CMBiAUQVRWLkAZ2HpscvAWbgAa9QhHSqhjkVKGr7y3uTJ/lfrkw0AAADQpvkBAAAAAABAm+YHAAAAAAAAbZofAAAAAAAAtGl+AAAAAAAA0Kb5AQAAAAAAQJvmBwAAAAAAAG2aHwAAAAAAALRpfgAAAAAAANCm+QEAAAAAAECb5gcAAAAAAABtmh8AAAAAAAC0aX4AAAAAAADQpvkBAAAAAABAm+YHAAAAAAAAbZofAAAAAAAAtGl+AAAAAAAA0Kb5AQAAAAAAQJvmBwAAAAAAAG2aHwAAAAAAALRpfgAAAAAAANCm+QEAAAAAAECb5gcAAAAAAABtmh8AAAAAAAC0aX4AAAAAAADQpvkBAAAAAABAm+YHAAAAAAAAbZofAAAAAAAAtGl+AAAAAAAA0Kb5AQAAAAAAQJvmBwAAAAAAAG2aHwAAAAAAALRt1x7gAdM0rT0CAACvbhiGtUcAnou7KgAA/GOb827tEX7LOz8AAAAAAABo0/wAAAAAAACgTfMDAAAAAACANs0PAAAAAAAA2jQ/AAAAAAAAaNP8AAAAAAAAoE3zAwAAAAAAgDbNDwAAAAAAANo0PwAAAAAAAGjT/AAAAAAAAKBN8wMAAAAAAIA2zQ8AAAAAAADaND8AAAAAAABo0/wAAAAAAACgTfMDAAAAAACANs0PAAAAAAAA2jQ/AAAAAAAAaNP8AAAAAAAAoE3zAwAAAAAAgDbNDwAAAAAAANo0PwAAAAAAAGjT/AAAAAAAAKBN8wMAAAAAAIA2zQ8AAAAAAADaND8AAAAAAABo0/wAAAAAAACgTfMDAAAAAACANs0PAAAAAAAA2jQ/AAAAAAAAaNP8AAAAAAAAoE3zAwAAAAAAgDbNDwAAAAAAANo0PwAAAAAAAGjT/AAAAAAAAKBN8wMAAAAAAIA2zQ8AAAAAAADaND8AAAAAAABo0/wAAAAAAACgTfMDAAAAAACANs0PAAAAAAAA2jQ/AAAAAAAAaNP8AAAAAAAAoE3zAwAAAAAAgDbNDwAAAAAAANo0PwAAAAAAAGjT/AAAAAAAAKBN8wMAAAAAAIA2zQ8AAAAAAADaND8AAAAAAABo0/wAAAAAAACgTfMDAAAAAACANs0PAAAAAAAA2jQ/AAAAAAAAaNP8AAAAAAAAoE3zAwAAAAAAgDbNDwAAAAAAANo0PwAAAAAAAGjT/AAAAAAAAKBN8wMAAAAAAIA2zQ8AAAAAAADaND8AAAAAAABo0/wAAAAAAACgTfMDAAAAAACANs0PAAAAAAAA2jQ/AAAAAAAAaNP8AAAAAAAAoE3zAwAAAAAAgDbNDwAAAAAAANo0PwAAAAAAAGjT/AAAAAAAAKBN8wMAAAAAAIA2zQ8AAAAAAADaND8AAAAAAABo0/wAAAAAAACgTfMDAAAAAACANs0PAAAAAAAA2jQ/AAAAAAAAaNP8AAAAAAAAoE3zAwAAAAAAgDbNDwAAAAAAANo0PwAAAAAAAGjT/AAAAAAAAKBN8wMAAAAAAIA2zQ8AAAAAAADaND8AAAAAAABo0/wAAAAAAACgTfMDAAAAAACANs0PAAAAAAAA2jQ/AAAAAAAAaNP8AAAAAAAAoE3zAwAAAAAAgDbNDwAAAAAAANo0PwAAAAAAAGjbrj3AAzbn3dojAADw6oaPt7VHAJ6LuyoAAPAMvPMDAAAAAACANs0PAAAAAAAA2jQ/AAAAAAAAaNP8AAAAAAAAoE3zAwAAAAAAgDbNDwAAAAAAANo0PwAAAAAAAGjT/AAAAAAAAKBN8wMAAAAAAIA2zQ8AAAAAAADaND8AAAAAAABo0/wAAAAAAACgTfMDAAAAAACANs0PAAAAAAAA2jQ/AAAAAAAAaNP8AAAAAAAAoE3zAwAAAAAAgDbNDwAAAAAAANo0PwAAAAAAAGjbLrHpOI739fT+ucQRAAAAAAAAUPQzpc1lkXd+1+t1iW0BAAAAAACgbomU5m9PAAAAAAAAaNP8AAAAAAAAoG2Ypmn2TW+32+Vy+V4fj8f9fj/7EQAAAAAAAFAxjuP9S8/T6XQ4HObdf5HmBwAAAAAAAPwZf3sCAAAAAABAm+YHAAAAAAAAbZofAAAAAAAAtGl+AAAAAAAA0Kb5AQAAAAAAQJvmBwAAAAAAAG2aHwAAAAAAALRpfgAAAAAAANCm+QEAAAAAAECb5gcAAAAAAABtmh8AAAAAAAC0aX4AAAAAAADQpvkBAAAAAABAm+YHAAAAAAAAbZofAAAAAAAAtGl+AAAAAAAA0Kb5AQAAAAAAQJvmBwAAAAAAAG2aHwAAAAAAALRpfgAAAAAAANCm+QEAAAAAAECb5gcAAAAAAABtmh8AAAAAAAC0aX4AAAAAAADQpvkBAAAAAABAm+YHAAAAAAAAbV92WEcbVGNhEAAAAABJRU5ErkJggg==;" vertex="1" parent="1">
          <mxGeometry x="390" y="610" width="2385" height="1338" as="geometry" />
        </mxCell>
        <mxCell id="QYAU8jXPNCYRcvgM-pDT-3" value="" style="shape=flexArrow;endArrow=classic;startArrow=classic;html=1;rounded=0;fillColor=#000000;strokeWidth=15;" edge="1" parent="1">
          <mxGeometry width="100" height="100" relative="1" as="geometry">
            <mxPoint x="2822" y="970" as="sourcePoint" />
            <mxPoint x="2822" y="670" as="targetPoint" />
          </mxGeometry>
        </mxCell>
        <mxCell id="QYAU8jXPNCYRcvgM-pDT-5" value="" style="shape=flexArrow;endArrow=classic;startArrow=classic;html=1;rounded=0;fillColor=#000000;strokeWidth=15;" edge="1" parent="1">
          <mxGeometry width="100" height="100" relative="1" as="geometry">
            <mxPoint x="2822" y="1200" as="sourcePoint" />
            <mxPoint x="2821" y="1020" as="targetPoint" />
          </mxGeometry>
        </mxCell>
        <mxCell id="QYAU8jXPNCYRcvgM-pDT-9" value="&lt;font style=&quot;font-size: 120px;&quot;&gt;$$ p $$&lt;/font&gt;&lt;div&gt;&lt;br&gt;&lt;/div&gt;" style="text;html=1;align=center;verticalAlign=middle;resizable=0;points=[];autosize=1;strokeColor=none;fillColor=none;" vertex="1" parent="1">
          <mxGeometry x="2710" y="720" width="420" height="170" as="geometry" />
        </mxCell>
        <mxCell id="QYAU8jXPNCYRcvgM-pDT-10" value="&lt;font style=&quot;font-size: 120px;&quot;&gt;$$ c $$&lt;/font&gt;&lt;div&gt;&lt;br&gt;&lt;/div&gt;" style="text;html=1;align=center;verticalAlign=middle;resizable=0;points=[];autosize=1;strokeColor=none;fillColor=none;" vertex="1" parent="1">
          <mxGeometry x="2710" y="1020" width="420" height="170" as="geometry" />
        </mxCell>
      </root>
    </mxGraphModel>
  </diagram>
</mxfile>
